<svg xmlns="http://www.w3.org/2000/svg" viewBox="0 0 24 24"><defs><linearGradient id="g" x1="0" y1="0" x2="1" y2="1"><stop offset="0" stop-color="#FF7AB8"/><stop offset=".5" stop-color="#C8F53C"/><stop offset="1" stop-color="#5AAFE3"/></linearGradient></defs><rect width="24" height="24" rx="5" fill="url(#g)"/><rect x="2" y="2" width="20" height="20" rx="3.5" fill="#fff"/><g shape-rendering="crispEdges"><rect x="10" y="8" width="1.03" height="1.03" fill="#13222E"/><rect x="11" y="8" width="1.03" height="1.03" fill="#13222E"/><rect x="12" y="8" width="1.03" height="1.03" fill="#13222E"/><rect x="13" y="8" width="1.03" height="1.03" fill="#13222E"/><rect x="9" y="9" width="1.03" height="1.03" fill="#13222E"/><rect x="10" y="9" width="1.03" height="1.03" fill="#13222E"/><rect x="11" y="9" width="1.03" height="1.03" fill="#13222E"/><rect x="12" y="9" width="1.03" height="1.03" fill="#13222E"/><rect x="13" y="9" width="1.03" height="1.03" fill="#13222E"/><rect x="14" y="9" width="1.03" height="1.03" fill="#13222E"/><rect x="9" y="10" width="1.03" height="1.03" fill="#13222E"/><rect x="10" y="10" width="1.03" height="1.03" fill="#F3D1B0"/><rect x="11" y="10" width="1.03" height="1.03" fill="#F3D1B0"/><rect x="12" y="10" width="1.03" height="1.03" fill="#F3D1B0"/><rect x="13" y="10" width="1.03" height="1.03" fill="#F3D1B0"/><rect x="14" y="10" width="1.03" height="1.03" fill="#13222E"/><rect x="9" y="11" width="1.03" height="1.03" fill="#F3D1B0"/><rect x="10" y="11" width="1.03" height="1.03" fill="#13222E"/><rect x="11" y="11" width="1.03" height="1.03" fill="#F3D1B0"/><rect x="12" y="11" width="1.03" height="1.03" fill="#F3D1B0"/><rect x="13" y="11" width="1.03" height="1.03" fill="#13222E"/><rect x="14" y="11" width="1.03" height="1.03" fill="#F3D1B0"/><rect x="9" y="12" width="1.03" height="1.03" fill="#F3D1B0"/><rect x="10" y="12" width="1.03" height="1.03" fill="#F3D1B0"/><rect x="11" y="12" width="1.03" height="1.03" fill="#F3D1B0"/><rect x="12" y="12" width="1.03" height="1.03" fill="#F3D1B0"/><rect x="13" y="12" width="1.03" height="1.03" fill="#F3D1B0"/><rect x="14" y="12" width="1.03" height="1.03" fill="#F3D1B0"/><rect x="10" y="13" width="1.03" height="1.03" fill="#F3D1B0"/><rect x="11" y="13" width="1.03" height="1.03" fill="#E0567A"/><rect x="12" y="13" width="1.03" height="1.03" fill="#E0567A"/><rect x="13" y="13" width="1.03" height="1.03" fill="#F3D1B0"/><rect x="8" y="14" width="1.03" height="1.03" fill="#5AAFE3"/><rect x="9" y="14" width="1.03" height="1.03" fill="#5AAFE3"/><rect x="10" y="14" width="1.03" height="1.03" fill="#5AAFE3"/><rect x="11" y="14" width="1.03" height="1.03" fill="#5AAFE3"/><rect x="12" y="14" width="1.03" height="1.03" fill="#5AAFE3"/><rect x="13" y="14" width="1.03" height="1.03" fill="#5AAFE3"/><rect x="14" y="14" width="1.03" height="1.03" fill="#5AAFE3"/><rect x="15" y="14" width="1.03" height="1.03" fill="#5AAFE3"/><rect x="7" y="15" width="1.03" height="1.03" fill="#F3D1B0"/><rect x="8" y="15" width="1.03" height="1.03" fill="#5AAFE3"/><rect x="9" y="15" width="1.03" height="1.03" fill="#5AAFE3"/><rect x="10" y="15" width="1.03" height="1.03" fill="#5AAFE3"/><rect x="11" y="15" width="1.03" height="1.03" fill="#5AAFE3"/><rect x="12" y="15" width="1.03" height="1.03" fill="#5AAFE3"/><rect x="13" y="15" width="1.03" height="1.03" fill="#5AAFE3"/><rect x="14" y="15" width="1.03" height="1.03" fill="#5AAFE3"/><rect x="15" y="15" width="1.03" height="1.03" fill="#5AAFE3"/><rect x="16" y="15" width="1.03" height="1.03" fill="#F3D1B0"/><rect x="7" y="16" width="1.03" height="1.03" fill="#F3D1B0"/><rect x="9" y="16" width="1.03" height="1.03" fill="#5AAFE3"/><rect x="10" y="16" width="1.03" height="1.03" fill="#5AAFE3"/><rect x="11" y="16" width="1.03" height="1.03" fill="#5AAFE3"/><rect x="12" y="16" width="1.03" height="1.03" fill="#5AAFE3"/><rect x="13" y="16" width="1.03" height="1.03" fill="#5AAFE3"/><rect x="14" y="16" width="1.03" height="1.03" fill="#5AAFE3"/><rect x="16" y="16" width="1.03" height="1.03" fill="#F3D1B0"/><rect x="9" y="17" width="1.03" height="1.03" fill="#5AAFE3"/><rect x="10" y="17" width="1.03" height="1.03" fill="#5AAFE3"/><rect x="11" y="17" width="1.03" height="1.03" fill="#5AAFE3"/><rect x="12" y="17" width="1.03" height="1.03" fill="#5AAFE3"/><rect x="13" y="17" width="1.03" height="1.03" fill="#5AAFE3"/><rect x="14" y="17" width="1.03" height="1.03" fill="#5AAFE3"/><rect x="9" y="18" width="1.03" height="1.03" fill="#13222E"/><rect x="10" y="18" width="1.03" height="1.03" fill="#13222E"/><rect x="13" y="18" width="1.03" height="1.03" fill="#13222E"/><rect x="14" y="18" width="1.03" height="1.03" fill="#13222E"/><rect x="9" y="19" width="1.03" height="1.03" fill="#13222E"/><rect x="10" y="19" width="1.03" height="1.03" fill="#13222E"/><rect x="13" y="19" width="1.03" height="1.03" fill="#13222E"/><rect x="14" y="19" width="1.03" height="1.03" fill="#13222E"/><rect x="8" y="20" width="1.03" height="1.03" fill="#C8F53C"/><rect x="9" y="20" width="1.03" height="1.03" fill="#C8F53C"/><rect x="10" y="20" width="1.03" height="1.03" fill="#C8F53C"/><rect x="13" y="20" width="1.03" height="1.03" fill="#C8F53C"/><rect x="14" y="20" width="1.03" height="1.03" fill="#C8F53C"/><rect x="15" y="20" width="1.03" height="1.03" fill="#C8F53C"/></g></svg>